<svg id="Capa_1" enable-background="new 0 0 512 512" height="512" viewBox="0 0 512 512" width="512" xmlns="http://www.w3.org/2000/svg"><g><g><path d="m256 315.708c-141.387 0-243.753-149.282-222.327-186.709 44.119-77.07 127.157-128.999 222.327-128.999s178.208 51.929 222.328 128.999c21.425 37.427-80.941 186.709-222.328 186.709z" fill="#3ae8e6"/><path d="m512 256c0 26.051-3.891 51.191-11.129 74.871-5.031 16.469-11.672 32.231-19.75 47.109-8.25 15.2-147.391 54.626-225.121 54.626s-216.871-39.426-225.109-54.626c-3.289-6.031-6.332-12.21-9.121-18.531-14-31.629-21.77-66.629-21.77-103.449 0-46.219 12.25-89.57 33.68-127 44.121 77.07 127.16 129 222.32 129s178.211-51.93 222.32-129c21.43 37.43 33.68 80.781 33.68 127zm0 0" fill="#30caf3"/><path d="m481.262 377.699c-7.16 13.223-15.434 25.742-24.723 37.43-8.437 10.633-17.719 20.57-27.719 29.723-3.941 3.608-7.994 7.095-12.155 10.454-43.928 35.459-276.873 35.659-320.705.502-4.38-3.513-8.642-7.167-12.779-10.956-10-9.153-19.282-19.09-27.719-29.723-9.289-11.688-17.563-24.207-24.723-37.43zm0 0" fill="#303a59"/></g><g><path d="m199.288 268.142h210.59v90.739h-210.59z" fill="#ffbe46"/><path d="m102.122 268.142h153.878v90.739h-153.878z" fill="#ffd567"/><path d="m102.122 460.599c8.373 6.307 17.141 12.117 26.268 17.376h81.484v-90.739h-107.752z" fill="#9dcb3b"/><path d="m313.468 477.975h70.142c9.127-5.258 17.895-11.069 26.268-17.376v-73.363h-96.41z" fill="#70ae3e"/><path d="m210.631 387.236h136.864v90.739h-136.864z" fill="#ff364e"/><path d="m164.505 387.236h91.495v90.739h-91.495z" fill="#ff5233"/><path d="m102.122 336.196c-21.925 0-39.698 17.774-39.698 39.698 0 21.925 17.774 39.698 39.698 39.698h153.878v-79.397h-153.878z" fill="#9e3802"/><path d="m409.878 336.196h-153.878v79.397h153.878c21.925 0 39.698-17.773 39.698-39.698 0-21.926-17.773-39.699-39.698-39.699z" fill="#732a04"/><path d="m256 313.511-34.027 68.054 34.027 68.054 102.837-113.423z" fill="#ffbe46"/><path d="m153.163 336.196 102.837 113.423v-136.108z" fill="#ffd567"/><path d="m416.671 455.29h-160.671l-34.027 28.356 34.024 28.354h.003c60.856 0 116.74-21.247 160.671-56.71z" fill="#ff8b2a"/><path d="m405.497 193.66h-217.551l68.054 102.837h182.234v-11.342c0-33.164-11.462-64.801-32.737-91.495z" fill="#ff6e2e"/><path d="m106.503 193.66c-21.275 26.694-32.736 58.331-32.736 91.495v11.342h182.233v-102.837z" fill="#ff8b2a"/><path d="m384.145 171.4c-34.437-30.018-79.947-46.55-128.145-46.55l-56.712 68.81 56.712 68.81c48.198 0 93.708-16.532 128.145-46.55 7.949-6.929 15.074-14.382 21.353-22.26-6.279-7.879-13.404-15.331-21.353-22.26z" fill="#ff5233"/><path d="m127.855 215.92c34.437 30.018 79.947 46.55 128.145 46.55v-137.62c-48.198 0-93.708 16.532-128.145 46.55-7.948 6.929-15.073 14.382-21.352 22.26 6.279 7.879 13.403 15.332 21.352 22.26z" fill="#ff6e2e"/><path d="m95.329 455.29c43.931 35.463 99.815 56.71 160.671 56.71v-56.71z" fill="#ffa725"/></g><g fill="#fff"><path d="m120.231 124.645h-1.523c-6.754 0-12.227-5.477-12.227-12.231v-1.523h-8.718v1.523c0 6.754-5.473 12.231-12.227 12.231h-1.523v8.714h1.523c6.754 0 12.227 5.473 12.227 12.227v1.523h8.718v-1.523c0-6.754 5.473-12.227 12.227-12.227h1.523zm0 0"/><path d="m199.36 74.141h-1.523c-6.754 0-12.227-5.477-12.227-12.231v-1.523h-8.718v1.523c0 6.754-5.473 12.231-12.227 12.231h-1.523v8.714h1.523c6.754 0 12.227 5.473 12.227 12.227v1.523h8.718v-1.523c0-6.754 5.473-12.227 12.227-12.227h1.523zm0 0"/><path d="m297.172 74.141h-1.523c-6.754 0-12.227-5.477-12.227-12.231v-1.523h-8.718v1.523c0 6.754-5.473 12.231-12.227 12.231h-1.523v8.714h1.523c6.754 0 12.227 5.473 12.227 12.227v1.523h8.718v-1.523c0-6.754 5.473-12.227 12.227-12.227h1.523zm0 0"/></g></g></svg>